<?xml version="1.0" encoding="UTF-8"?>
<svg version="1.1" xmlns="http://www.w3.org/2000/svg" width="2907" height="2243">
<path d="M0 0 C1.22074219 0.32871094 2.44148438 0.65742187 3.69921875 0.99609375 C40.93510396 12.24078636 61.3769256 39.35020602 79.37939453 72.08105469 C81.50244728 75.90498037 83.70181691 79.67861975 85.9375 83.4375 C90.07383383 90.40730415 94.14121667 97.41502052 98.1875 104.4375 C98.82550537 105.54472412 99.46351074 106.65194824 100.12084961 107.79272461 C101.42889477 110.06337068 102.73675448 112.33412358 104.04443359 114.60498047 C107.19332054 120.0716998 110.34683264 125.53574887 113.5 131 C114.7500235 133.16665311 116.00002347 135.33331979 117.25 137.5 C118.178125 139.10875 118.178125 139.10875 119.125 140.75 C154.75000001 202.50000001 154.75000001 202.50000001 156.62524414 205.75048828 C157.87435518 207.91557071 159.12354129 210.08060982 160.37280273 212.24560547 C163.51202309 217.68615706 166.64990563 223.12747216 169.78515625 228.5703125 C175.80747329 239.02206199 181.84669337 249.46299548 187.9375 259.875 C193.35921178 269.14499777 198.70204915 278.45831752 204.01922607 287.78845215 C209.22045129 296.9128284 214.48027878 306.00132774 219.78344727 315.06689453 C225.93766742 325.59084625 232.02369996 336.15380137 238.10888672 346.71777344 C241.23680148 352.14659942 244.36858448 357.57319281 247.5 363 C248.75001879 365.16665583 250.00001878 367.3333225 251.25 369.5 C252.178125 371.10875 252.178125 371.10875 253.125 372.75 C258.75000001 382.50000001 258.75000001 382.50000001 260.62597656 385.75170898 C261.87270256 387.91268988 263.11944727 390.07365998 264.36621094 392.23461914 C267.54145883 397.73818851 270.71635495 403.24196032 273.890625 408.74609375 C274.53128906 409.85637939 275.17195313 410.96666504 275.83203125 412.1105957 C277.09692032 414.30466946 278.35998319 416.49979718 279.62109375 418.69604492 C282.50903242 423.71953419 285.42140089 428.72245821 288.421875 433.6796875 C288.94426758 434.55181885 289.46666016 435.4239502 290.00488281 436.32250977 C290.97125255 437.9319162 291.94904222 439.53454467 292.94042969 441.12866211 C293.57319824 442.18839233 293.57319824 442.18839233 294.21875 443.26953125 C294.58935547 443.87385986 294.95996094 444.47818848 295.34179688 445.10083008 C296.50875503 448.46795453 295.40891291 451.12604703 293.94702148 454.25048828 C293.50946533 455.01603027 293.07190918 455.78157227 292.62109375 456.5703125 C291.87025513 457.89325317 291.87025513 457.89325317 291.10424805 459.24291992 C290.55422119 460.19400635 290.00419434 461.14509277 289.4375 462.125 C288.86104736 463.13344971 288.28459473 464.14189941 287.69067383 465.1809082 C282.60486387 474.04056408 277.38578804 482.8210179 272.15600586 491.59619141 C267.34422698 499.6789643 262.64581654 507.8208657 258 516 C252.11673941 526.35648649 246.09855885 536.62370693 240 546.85546875 C235.24345659 554.85426538 230.59659407 562.90882732 226 571 C220.1165433 581.35637764 214.09856201 591.62370163 208 601.85546875 C203.24345659 609.85426538 198.59659407 617.90882732 194 626 C188.75992179 635.22386814 183.4316427 644.38691059 178 653.5 C172.53105465 662.6775781 167.15850653 671.90249783 161.875 681.1875 C155.23314949 692.85891001 148.50298231 704.47579633 141.71777344 716.06445312 C138.80639293 721.03978559 135.90368603 726.02017442 133 731 C131.8333738 733.00002361 130.66670716 735.00002362 129.5 737 C128.9225 737.99 128.345 738.98 127.75 740 C108.5 773.00000001 108.5 773.00000001 106.75024414 775.99951172 C105.58268272 778.00109211 104.41520236 780.00271977 103.24780273 782.00439453 C100.34548584 786.98060392 97.44180084 791.95600455 94.53515625 796.9296875 C88.53222975 807.20532498 82.55803449 817.49633553 76.625 827.8125 C71.50713676 836.70897255 66.31331373 845.55639955 61.0625 854.375 C53.45610314 867.15746851 46.05238723 880.0470549 38.71679688 892.98632812 C37.2166366 895.61971528 35.70019201 898.24227157 34.171875 900.859375 C22.12684992 921.58869081 16.59356038 943.27788914 22.49316406 966.98144531 C28.50556939 989.64358849 41.93466256 1007.85097585 62 1020 C78.70742743 1029.20946 95.76400441 1031.15893167 114.54652405 1031.12025452 C116.12584066 1031.12069103 117.7051572 1031.1215674 119.28447336 1031.12284368 C123.60814816 1031.12507297 127.93179805 1031.12108884 132.25546968 1031.11606562 C136.92406675 1031.11173878 141.59266247 1031.11320913 146.26126099 1031.1139679 C154.34458307 1031.11449171 162.42789707 1031.11135974 170.51121712 1031.10573006 C182.19827684 1031.09759583 193.88533266 1031.09499786 205.5723949 1031.09374207 C224.53483775 1031.09155457 243.49727629 1031.08490268 262.4597168 1031.07543945 C280.87768533 1031.06625752 299.29565269 1031.0591805 317.71362305 1031.05493164 C319.41714425 1031.05453756 319.41714425 1031.05453756 321.15508003 1031.05413551 C326.85257546 1031.05283045 332.5500709 1031.05156675 338.24756634 1031.05032361 C385.49838054 1031.03996041 432.74919006 1031.02235031 480 1031 C477.85136122 1027.23399162 475.70199518 1023.46839945 473.55201721 1019.70315552 C472.82406498 1018.42807644 472.09629551 1017.152893 471.36872864 1015.87759399 C466.59982498 1007.51888972 461.79680662 999.18161662 456.9375 990.875 C456.33834274 989.85054779 455.73918549 988.82609558 455.12187195 987.77059937 C454.58407608 986.85114532 454.04628021 985.93169128 453.4921875 984.984375 C446.63994348 973.25865116 439.88276887 961.47755337 433.10449219 949.70898438 C426.43043688 938.12318234 419.74535916 926.54446647 413 915 C404.97732489 901.26944812 397.04141741 887.48922034 389.10449219 873.70898438 C382.43043688 862.12318234 375.74535916 850.54446647 369 839 C364.1633212 830.72217891 359.35134277 822.43059092 354.5625 814.125 C353.9442334 813.0527417 353.3259668 811.9804834 352.68896484 810.87573242 C349.46801634 805.28737422 346.25052593 799.69703846 343.03515625 794.10546875 C341.73196735 791.84103273 340.42858515 789.57670794 339.125 787.3125 C338.50173828 786.2292041 337.87847656 785.1459082 337.23632812 784.02978516 C333.39036297 777.36104612 329.49552338 770.72627413 325.43603516 764.18481445 C323 760.21145814 323 760.21145814 323 758 C322.34 758 321.68 758 321 758 C320.75507812 758.66773438 320.51015625 759.33546875 320.2578125 760.0234375 C318.70469836 763.69881941 316.82003219 767.14751821 314.875 770.625 C314.44396973 771.39859863 314.01293945 772.17219727 313.56884766 772.96923828 C309.29007129 780.58761958 304.82218982 788.09179379 300.34863281 795.59689331 C295.09777425 804.40869138 289.94658109 813.27135319 284.875 822.1875 C278.1614937 833.98971984 271.35517604 845.7346521 264.48535156 857.4465332 C263.28349685 859.51264076 262.09227017 861.58387597 260.90716553 863.65959167 C260.2778009 864.76192642 259.64843628 865.86426117 259 867 C259.92406143 866.97779388 260.84812286 866.95558777 261.80018616 866.93270874 C270.52434747 866.73203162 279.24773006 866.57994064 287.97367191 866.48187828 C292.45960787 866.4297652 296.94363158 866.35913783 301.4284668 866.24560547 C305.75990383 866.13664723 310.08950681 866.07709956 314.42220879 866.05122757 C316.07183144 866.03280149 317.72135761 865.99681401 319.37019539 865.94269943 C332.28080102 865.53597205 332.28080102 865.53597205 336.52468872 869.14996338 C338.33737113 871.70092033 339.69444418 874.16207146 341 877 C341.8134784 878.36301551 342.6387419 879.71919697 343.484375 881.0625 C344.24360023 882.3726805 344.99874937 883.68523068 345.75 885 C349.90216586 892.1785282 354.19457637 899.25893381 358.59667969 906.28710938 C359.26425293 907.36508789 359.26425293 907.36508789 359.9453125 908.46484375 C360.34250488 909.100271 360.73969727 909.73569824 361.14892578 910.39038086 C362 912 362 912 362 914 C264.485 915.485 264.485 915.485 165 917 C166.43429423 912.69711731 167.53950968 909.76244844 169.765625 906.0078125 C170.59501587 904.59846436 170.59501587 904.59846436 171.44116211 903.16064453 C172.03807861 902.15888184 172.63499512 901.15711914 173.25 900.125 C174.52746789 897.95840653 175.80480816 895.7917378 177.08203125 893.625 C177.73510254 892.5215625 178.38817383 891.418125 179.06103516 890.28125 C182.03962233 885.24067941 184.98906318 880.1832464 187.9375 875.125 C188.51290527 874.13943115 189.08831055 873.1538623 189.68115234 872.13842773 C193.94040877 864.83743603 198.16093168 857.51463903 202.375 850.1875 C207.51662348 841.25129826 212.72979462 832.36094387 218 823.5 C225.78847263 810.40261932 233.41191039 797.21422451 241 784 C249.24352753 769.6443678 257.55607272 755.33659231 266.01708984 741.10791016 C273.12547263 729.1374419 280.06734992 717.07281401 287 705 C295.21811679 690.68861915 303.50669344 676.42678808 311.94897461 662.24633789 C316.71975985 654.21221305 321.38418598 646.12358443 326 638 C331.8992291 627.61767404 337.92133094 617.31649529 344.03955078 607.06103516 C347.49786734 601.2549335 350.91734184 595.43032737 354.26953125 589.5625 C354.61655594 588.95596588 354.96358063 588.34943176 355.32112122 587.72451782 C356.98964379 584.80650163 358.65167255 581.88521433 360.30493164 578.95849609 C360.89266357 577.92805176 361.48039551 576.89760742 362.0859375 575.8359375 C362.6020459 574.92376465 363.1181543 574.0115918 363.64990234 573.07177734 C365 571 365 571 367 570 C415.75 654.5 415.75 654.5 417.62524414 657.75048828 C418.87435518 659.91557071 420.12354129 662.08060982 421.37280273 664.24560547 C424.51202309 669.68615706 427.64990563 675.12747216 430.78515625 680.5703125 C436.80747329 691.02206199 442.84669337 701.46299548 448.9375 711.875 C454.35921178 721.14499777 459.70204915 730.45831752 465.01922607 739.78845215 C470.22045129 748.9128284 475.48027878 758.00132774 480.78344727 767.06689453 C486.93766742 777.59084625 493.02369996 788.15380137 499.10888672 798.71777344 C502.23680148 804.14659942 505.36858448 809.57319281 508.5 815 C509.75001879 817.16665583 511.00001878 819.3333225 512.25 821.5 C512.86875 822.5725 513.4875 823.645 514.125 824.75 C536 862.66666667 557.875 900.58333333 579.75 938.5 C580.36939453 939.57338623 580.98878906 940.64677246 581.62695312 941.75268555 C582.87125139 943.90993415 584.11474689 946.06764599 585.35742188 948.22583008 C588.56306478 953.79071517 591.78417563 959.34591266 595.03125 964.88671875 C614.03543681 997.38821048 625.72805258 1028.92787735 616.47607422 1066.72509766 C611.21867749 1086.62291355 601.19162296 1103.16911474 587 1118 C586.06607422 1119.02867187 586.06607422 1119.02867187 585.11328125 1120.078125 C566.4652132 1139.938122 537.94396408 1150.02156282 511.21394694 1151.28701019 C506.18159994 1151.44443331 501.15015697 1151.44867419 496.11579895 1151.44824219 C494.18706323 1151.45888929 492.25833408 1151.47078528 490.32961291 1151.4838047 C485.0862484 1151.51542659 479.84297984 1151.52881828 474.59953535 1151.53876448 C468.92340647 1151.5526513 463.24736207 1151.58339444 457.57128906 1151.61148071 C443.90613334 1151.6751574 430.24096366 1151.71021541 416.57570007 1151.74099636 C411.42507584 1151.75298352 406.27445693 1151.76672047 401.12383721 1151.78049099 C378.40544052 1151.84104906 355.687048 1151.89281528 332.96858692 1151.91995239 C327.42461447 1151.92668323 321.88064213 1151.93349756 316.33666992 1151.94042969 C315.64798898 1151.9412809 314.95930804 1151.94213211 314.24975798 1151.94300911 C291.87904874 1151.97100276 269.50888579 1152.04894806 247.1384223 1152.1554631 C223.45233642 1152.26803608 199.76667092 1152.33318092 176.08029574 1152.34516144 C163.18023886 1152.35290865 150.28101084 1152.38220426 137.38120461 1152.46618652 C126.4099689 1152.53747287 115.4397518 1152.56476177 104.46830735 1152.5340575 C98.87056919 1152.51975081 93.27494677 1152.52663239 87.67750359 1152.59004593 C82.55405093 1152.64759762 77.43425755 1152.64525089 72.31075986 1152.59504747 C70.45718086 1152.58746387 68.60335467 1152.60191209 66.75016222 1152.64051771 C61.23184191 1152.74840034 56.28993651 1152.67925048 51 1151 C47.06406191 1147.06620188 45.19240038 1143.12277746 43 1138 C41.83513072 1135.94770981 40.64851844 1133.90742818 39.4296875 1131.88671875 C38.24304004 1129.82131788 37.05819395 1127.75488119 35.875 1125.6875 C34.56039305 1123.39945164 33.24537586 1121.11164486 31.9296875 1118.82421875 C31.27323242 1117.68259277 30.61677734 1116.5409668 29.94042969 1115.36474609 C26.98014053 1110.23154212 23.9911635 1105.11525529 21 1100 C16.13875142 1091.68261098 11.30858808 1083.34794193 6.5 1075 C-0.62086408 1062.63977482 -7.80183378 1050.31532673 -15 1038 C-25.36158778 1020.27238229 -35.64719111 1002.50230086 -45.89550781 984.70898438 C-53.14033048 972.1323608 -60.4073281 959.56963043 -67.73071289 947.03857422 C-72.65051282 938.61430661 -77.52522138 930.16446104 -82.39453125 921.7109375 C-86.57349128 914.4604851 -90.77740506 907.22511731 -95 900 C-100.49945536 890.5900967 -105.95449196 881.15529437 -111.39453125 871.7109375 C-115.57349158 864.46048459 -119.77747989 857.22516137 -124 850 C-132.02281678 836.26953183 -139.95858328 822.48921914 -147.89550781 808.70898438 C-155.14033048 796.1323608 -162.4073281 783.56963043 -169.73071289 771.03857422 C-174.01245061 763.70687275 -178.26182498 756.35695587 -182.5 749 C-184.99902696 744.66610481 -187.49924611 740.33289891 -190 736 C-190.6197168 734.92556641 -191.23943359 733.85113281 -191.87792969 732.74414062 C-205.02933663 708.99946842 -205.02933663 708.99946842 -222 688 C-222.61101562 687.37738281 -223.22203125 686.75476563 -223.8515625 686.11328125 C-240.47308793 670.37587951 -262.97557951 665.28490605 -285.1640625 665.6953125 C-306.80437663 666.54629658 -326.96358983 676.84053274 -341.84765625 692.45703125 C-351.65765054 704.04742378 -358.41836823 718.34654114 -365.88005066 731.51017761 C-369.38706423 737.6925266 -372.9408525 743.84753699 -376.5 750 C-381.66878496 758.94526798 -386.81431487 767.90355099 -391.9375 776.875 C-392.26894012 777.45538025 -392.60038025 778.0357605 -392.94186401 778.63372803 C-395.29536276 782.75536978 -397.64780253 786.87761551 -400 791 C-402.68677211 795.7087491 -405.37401405 800.41722918 -408.0625 805.125 C-408.39402069 805.70554138 -408.72554138 806.28608276 -409.06710815 806.88421631 C-414.47029329 816.34377713 -419.90818945 825.78300545 -425.35791016 835.21582031 C-431.93788357 846.611459 -438.46191372 858.03889357 -444.98388672 869.46777344 C-448.65251603 875.89603046 -452.32606773 882.32147645 -455.99871826 888.74743652 C-456.99787414 890.4956693 -457.99699709 892.24392088 -458.99609375 893.9921875 C-459.32589233 894.56928467 -459.65569092 895.14638184 -459.9954834 895.7409668 C-462.0066016 899.26048502 -464.01656815 902.78065826 -466.02566528 906.30133057 C-473.43839663 919.29103355 -480.87611088 932.26572044 -488.35791016 945.21582031 C-492.9048802 953.09056759 -497.42810456 960.97869369 -501.9375 968.875 C-502.26860779 969.45471558 -502.59971558 970.03443115 -502.94085693 970.63171387 C-506.31465903 976.53920052 -509.68586421 982.44816354 -513.05415344 988.35879517 C-514.41746993 990.75065075 -515.78169761 993.14198601 -517.14602661 995.53326416 C-518.06301011 997.14129402 -518.97869579 998.75006377 -519.89428711 1000.35888672 C-524.30502158 1008.0897796 -528.78157628 1015.78121824 -533.26904297 1023.46777344 C-533.9173558 1024.57869354 -534.56566864 1025.68961365 -535.23362732 1026.834198 C-536.82220966 1029.55625382 -538.41100608 1032.27818443 -540 1035 C-539.37408494 1034.98872102 -538.74816988 1034.97744204 -538.1032877 1034.96582127 C-494.83391925 1034.19098843 -451.56767064 1033.7332809 -408.29238892 1033.46757126 C-403.3638642 1033.43722637 -398.43535005 1033.40533453 -393.50683594 1033.37332153 C-336.67079399 1033.00572689 -279.83728594 1032.86577752 -223 1033 C-232.83039244 1015.53230797 -232.83039244 1015.53230797 -242.875 998.1875 C-247.78185988 989.80979912 -252.65505165 981.41365723 -257.5 973 C-262.50015103 964.3212176 -267.51767574 955.65289986 -272.5625 947 C-273.40167969 945.55947266 -273.40167969 945.55947266 -274.2578125 944.08984375 C-277.41294684 938.68430034 -280.6190599 933.31794556 -283.91381836 927.99609375 C-285 926 -285 926 -285 924 C-285.66 924 -286.32 924 -287 924 C-287.39807861 925.06335571 -287.39807861 925.06335571 -287.80419922 926.14819336 C-289.05374906 929.12818349 -290.52001035 931.82920653 -292.1328125 934.62890625 C-293.08377808 936.28599609 -293.08377808 936.28599609 -294.05395508 937.9765625 C-294.74421183 939.17192788 -295.43456241 940.36723907 -296.125 941.5625 C-296.83584203 942.79799796 -297.54636771 944.03367797 -298.2565918 945.26953125 C-299.36447215 947.19721242 -300.47262165 949.12473386 -301.58201599 951.05154419 C-304.24049294 955.67029995 -306.88056596 960.299226 -309.51171875 964.93359375 C-310.24001783 966.21479295 -310.96836991 967.49596201 -311.69677734 968.77709961 C-312.74848728 970.62687534 -313.79949266 972.4770288 -314.84796143 974.3286438 C-315.8193129 976.043434 -316.79434675 977.75613671 -317.76953125 979.46875 C-318.32229736 980.44263672 -318.87506348 981.41652344 -319.44458008 982.41992188 C-319.95786865 983.27134766 -320.47115723 984.12277344 -321 985 C-321.64859985 986.14227051 -321.64859985 986.14227051 -322.31030273 987.30761719 C-324.81541307 989.81670906 -326.77214956 989.54499283 -330.265625 989.609375 C-331.53849365 989.64168213 -332.8113623 989.67398926 -334.12280273 989.70727539 C-335.49852906 989.72209423 -336.87426184 989.73632419 -338.25 989.75 C-339.64724691 989.77773797 -341.04446506 989.80696296 -342.44165039 989.83764648 C-346.62761567 989.92203473 -350.8133445 989.96730666 -355 990 C-356.22509277 990.0098291 -357.45018555 990.0196582 -358.71240234 990.02978516 C-365.1422852 990.06885326 -371.57028228 990.0573513 -378 990 C-369.23507083 971.99349899 -359.5313436 954.48328362 -349.78125 936.99609375 C-346.2341498 930.63116657 -342.70938388 924.25390283 -339.1875 917.875 C-338.84429718 917.25343018 -338.50109436 916.63186035 -338.14749146 915.99145508 C-332.88590103 906.45811354 -327.68055504 896.89553081 -322.50585938 887.31469727 C-319.05311263 880.92765192 -315.56062661 874.56493204 -312.02246094 868.22485352 C-309.36905998 863.46898757 -306.73188808 858.70441003 -304.10546875 853.93359375 C-303.58526405 852.98901054 -303.58526405 852.98901054 -303.05455017 852.02534485 C-301.65861174 849.49042279 -300.26269344 846.95549269 -298.86898804 844.41934204 C-296.59047741 840.27334319 -294.29959927 836.13434167 -292 832 C-291.46034607 831.0258313 -291.46034607 831.0258313 -290.90979004 830.03198242 C-289.82336433 828.07524731 -288.72917937 826.12305391 -287.6328125 824.171875 C-287.29845184 823.56756653 -286.96409119 822.96325806 -286.61959839 822.34063721 C-284.22902965 818.11451483 -284.22902965 818.11451483 -282 817 C-281.59386475 817.7120459 -281.18772949 818.4240918 -280.76928711 819.15771484 C-268.03263325 841.48211473 -255.23747411 863.77108097 -242.26904297 885.96191406 C-237.34924802 894.38597431 -232.47468788 902.8356965 -227.60546875 911.2890625 C-223.42650872 918.5395149 -219.22259494 925.77488269 -215 933 C-209.50054464 942.4099033 -204.04550804 951.84470563 -198.60546875 961.2890625 C-194.42650872 968.5395149 -190.22259494 975.77488269 -186 983 C-180.50054464 992.4099033 -175.04550804 1001.84470563 -169.60546875 1011.2890625 C-165.42650872 1018.5395149 -161.22259494 1025.77488269 -157 1033 C-152.1389704 1041.31751792 -147.30858897 1049.65205653 -142.5 1058 C-135.37913592 1070.36022518 -128.19816622 1082.68467327 -121 1095 C-118.68667962 1098.95785474 -116.37404572 1102.9161085 -114.0625 1106.875 C-113.49619873 1107.84477783 -112.92989746 1108.81455566 -112.34643555 1109.8137207 C-109.16850705 1115.26217369 -106.00438041 1120.7183362 -102.85546875 1126.18359375 C-102.51133438 1126.78081238 -102.16720001 1127.37803101 -101.81263733 1127.99334717 C-100.13901086 1130.89867793 -98.46712011 1133.80498473 -96.79711914 1136.71240234 C-96.19891357 1137.75219238 -95.60070801 1138.79198242 -94.984375 1139.86328125 C-94.45553711 1140.78407471 -93.92669922 1141.70486816 -93.38183594 1142.65356445 C-92.31175189 1144.47062767 -91.16972036 1146.24541946 -90 1148 C-90 1148.99 -90 1149.98 -90 1151 C-135.97022226 1151.05138951 -181.94044723 1151.09914685 -227.91069031 1151.12702942 C-228.93233974 1151.12765068 -228.93233974 1151.12765068 -229.97462856 1151.12828448 C-244.77913863 1151.1372646 -259.583649 1151.14557495 -274.38815983 1151.15319599 C-281.64899139 1151.15693778 -288.90982286 1151.16082747 -296.1706543 1151.16479492 C-296.89316858 1151.1651872 -297.61568287 1151.16557948 -298.36009152 1151.16598364 C-321.75067496 1151.17875242 -345.14123656 1151.20127492 -368.53180678 1151.22889166 C-392.5820777 1151.25723552 -416.63233654 1151.275667 -440.68262388 1151.28174497 C-444.08476897 1151.28260935 -447.48691402 1151.28358626 -450.88905907 1151.28463173 C-451.89337949 1151.28493513 -451.89337949 1151.28493513 -452.91798921 1151.28524467 C-463.0023774 1151.28856202 -473.08673205 1151.300509 -483.17110634 1151.31719017 C-494.65935624 1151.33612445 -506.1475569 1151.34490017 -517.63582257 1151.34050413 C-523.4932651 1151.33858797 -529.35059823 1151.3414676 -535.20802116 1151.35761642 C-540.58208449 1151.37232361 -545.95596589 1151.37288284 -551.33003797 1151.36269668 C-553.26307216 1151.36143962 -555.19611818 1151.36515287 -557.12912945 1151.37464955 C-572.62049803 1151.4462641 -588.52839192 1150.60524659 -603.25 1145.3125 C-604.34574341 1144.93013184 -604.34574341 1144.93013184 -605.46362305 1144.54003906 C-634.18778768 1134.11074688 -655.98434264 1112.2120687 -669.13623047 1084.91162109 C-681.49588107 1057.558296 -681.94525933 1026.38176879 -671.67578125 998.390625 C-664.66779628 980.89823499 -654.26046491 964.69828237 -644.671875 948.53125 C-641.33998092 942.90132145 -638.07852327 937.2308083 -634.8125 931.5625 C-633.85549194 929.90166382 -633.85549194 929.90166382 -632.87915039 928.20727539 C-631.57110523 925.93662932 -630.26324552 923.66587642 -628.95556641 921.39501953 C-625.80667946 915.9283002 -622.65316736 910.46425113 -619.5 905 C-618.2499765 902.83334689 -616.99997653 900.66668021 -615.75 898.5 C-603.25 876.83333333 -590.75 855.16666667 -578.25 833.5 C-577.63116943 832.42733887 -577.01233887 831.35467773 -576.37475586 830.24951172 C-575.12564482 828.08442929 -573.87645871 825.91939018 -572.62719727 823.75439453 C-569.48797691 818.31384294 -566.35009437 812.87252784 -563.21484375 807.4296875 C-557.19252671 796.97793801 -551.15330663 786.53700452 -545.0625 776.125 C-539.98724877 767.44737759 -534.97741233 758.73394432 -530 750 C-524.4599827 740.27884383 -518.86625191 730.59105342 -513.21655273 720.93310547 C-507.06233258 710.40915375 -500.97630004 699.84619863 -494.89111328 689.28222656 C-491.76319852 683.85340058 -488.63141552 678.42680719 -485.5 673 C-484.24998121 670.83334417 -482.99998122 668.6666775 -481.75 666.5 C-479.25 662.16666667 -476.75 657.83333333 -474.25 653.5 C-473.63116943 652.42733887 -473.01233887 651.35467773 -472.37475586 650.24951172 C-471.12564482 648.08442929 -469.87645871 645.91939018 -468.62719727 643.75439453 C-465.48797691 638.31384294 -462.35009437 632.87252784 -459.21484375 627.4296875 C-458.58191406 626.33140625 -457.94898438 625.233125 -457.296875 624.1015625 C-456.13099679 622.0784209 -454.96556279 620.05502318 -453.80078125 618.03125 C-452.65301754 616.04001343 -451.45392212 614.07772305 -450.21246529 612.14351273 C-448.29868136 608.909284 -447.31810534 605.76303971 -446.30534172 602.15174484 C-443.87235022 594.96010187 -440.73957251 588.05379103 -434 584 C-419.85855602 578.78025749 -402.23433077 580.90210731 -387.46366954 581.18851829 C-381.62296556 581.27807482 -375.78343934 581.25408244 -369.94224811 581.23297998 C-357.9982677 581.19363926 -346.05738431 581.26495443 -334.11420059 581.39954376 C-322.28575471 581.53235321 -310.45875019 581.61331054 -298.6295433 581.62651825 C-297.89251847 581.62736215 -297.15549364 581.62820606 -296.39613473 581.62907553 C-292.65244908 581.63306702 -288.90876331 581.63609734 -285.16507648 581.63872978 C-258.66706738 581.65881213 -232.1705943 581.78697318 -205.67333984 581.98193359 C-179.97809772 582.17062635 -154.28319135 582.32060194 -128.58740234 582.41064453 C-127.79594687 582.41343936 -127.00449139 582.41623418 -126.18905241 582.4191137 C-108.87679452 582.48008072 -91.5645132 582.53268529 -74.2522205 582.58265257 C-68.8947507 582.59816177 -63.53728179 582.61397157 -58.17981304 582.62983719 C-55.15501878 582.63879137 -52.13022407 582.64756645 -49.10542892 582.65621623 C-30.60569137 582.70953291 -12.10648439 582.7934541 6.39290756 582.91883192 C7.46560377 582.92610008 7.46560377 582.92610008 8.55997062 582.93351507 C9.2722572 582.93834644 9.98454378 582.94317781 10.71841481 582.94815559 C19.70283173 583.00836977 28.6873254 583.05480784 37.67183124 583.09951898 C45.3332539 583.13877721 52.99428665 583.19502976 60.6554883 583.26485737 C65.31777485 583.30307663 69.98002497 583.32432126 74.64243437 583.34076867 C76.76750418 583.35168079 78.89255291 583.36951149 81.0174955 583.39519683 C96.21823548 583.57426245 110.62912733 582.65704499 124.3125 575.25 C124.97000244 574.90638428 125.62750488 574.56276855 126.30493164 574.20874023 C146.01599751 563.64210732 160.89696535 546.45020775 167.63720703 524.96923828 C174.2593931 501.85188408 171.43294138 479.31689002 159.94140625 458.10546875 C158.82460261 456.12741954 157.69795271 454.15490341 156.5625 452.1875 C155.64778931 450.57862915 155.64778931 450.57862915 154.71459961 448.93725586 C149.39902093 439.61537786 143.98973631 430.34705057 138.5625 421.08984375 C134.86786663 414.78429535 131.2115276 408.45702466 127.5625 402.125 C126.94068848 401.04629639 126.31887695 399.96759277 125.67822266 398.85620117 C123.15288749 394.47423228 120.62871825 390.09159223 118.10449219 385.70898438 C111.43043688 374.12318234 104.74535916 362.54446647 98 351 C89.97732489 337.26944812 82.04141741 323.48922034 74.10449219 309.70898438 C66.85966952 297.1323608 59.5926719 284.56963043 52.26928711 272.03857422 C47.34948718 263.61430661 42.47477862 255.16446104 37.60546875 246.7109375 C33.42650842 239.46048459 29.22252011 232.22516137 25 225 C18.25286886 213.45277514 11.5666063 201.87097881 4.89111328 190.28222656 C3.01051894 187.01825673 1.12859454 183.75505811 -0.75390625 180.4921875 C-1.37305908 179.4189624 -1.99221191 178.3457373 -2.63012695 177.23999023 C-3.86900079 175.09335299 -5.1084146 172.94702728 -6.34838867 170.80102539 C-9.2837785 165.71886369 -12.21276277 160.6333111 -15.12011719 155.5350647 C-16.49586791 153.12346917 -17.87511347 150.71388124 -19.25463867 148.30444336 C-20.22851818 146.6000945 -21.19732565 144.89285062 -22.16601562 143.18554688 C-22.75576172 142.15623047 -23.34550781 141.12691406 -23.953125 140.06640625 C-24.72897949 138.7043103 -24.72897949 138.7043103 -25.52050781 137.31469727 C-26.85523239 135.22649204 -28.16933668 133.65421796 -30 132 C-30.20109375 132.76699219 -30.4021875 133.53398437 -30.609375 134.32421875 C-32.57206821 139.51212413 -35.40808163 144.06164726 -38.25 148.8125 C-43.27736565 157.31634624 -48.20273473 165.86424302 -53 174.5 C-58.13552839 183.72974156 -63.40213603 192.87238792 -68.75 201.98046875 C-72.92243959 209.1052819 -76.98495244 216.28546141 -81 223.5 C-86.13631389 232.72931402 -91.40212535 241.87236973 -96.75 250.98046875 C-100.92243959 258.1052819 -104.98495244 265.28546141 -109 272.5 C-114.13631389 281.72931402 -119.40212535 290.87236973 -124.75 299.98046875 C-128.92243959 307.1052819 -132.98495244 314.28546141 -137 321.5 C-142.13631389 330.72931402 -147.40212535 339.87236973 -152.75 348.98046875 C-157.44631608 356.99984777 -162.01052965 365.08789393 -166.50390625 373.22265625 C-172.81610591 384.59727169 -179.43902632 395.75261654 -186 407 C-144.75 406.67 -103.5 406.34 -61 406 C-71.03488679 388.19635928 -71.03488679 388.19635928 -81.25 370.5 C-82.11250366 369.01512085 -82.11250366 369.01512085 -82.99243164 367.50024414 C-85.5642534 363.08632043 -88.15997175 358.70283614 -90.91796875 354.40234375 C-91.34883789 353.72171875 -91.77970703 353.04109375 -92.22363281 352.33984375 C-93.34019396 350.58999572 -94.47959789 348.85477888 -95.62109375 347.12109375 C-97.42035023 343.04855571 -97.21165588 341.28567173 -96 337 C-94.42394113 333.50991477 -92.58082752 330.2016107 -90.6875 326.875 C-89.89520996 325.45356689 -89.89520996 325.45356689 -89.08691406 324.00341797 C-87.40439856 320.99466683 -85.70455149 317.99631574 -84 315 C-83.42523926 313.98615234 -82.85047852 312.97230469 -82.25830078 311.92773438 C-78.86064218 305.93922871 -75.44181598 299.96323207 -72 294 C-69.7969513 296.06451465 -68.20856036 298.08463995 -66.6796875 300.68359375 C-66.23616943 301.43092773 -65.79265137 302.17826172 -65.33569336 302.94824219 C-64.85366455 303.76969727 -64.37163574 304.59115234 -63.875 305.4375 C-62.79125011 307.26484839 -61.70656192 309.09164052 -60.62109375 310.91796875 C-60.0369873 311.90200684 -59.45288086 312.88604492 -58.85107422 313.89990234 C-55.93150974 318.78946048 -52.96251065 323.64871695 -49.99765015 328.51089478 C-42.84952038 340.23692233 -35.81498285 352.02707114 -28.82223511 363.84631348 C-24.2780407 371.52370614 -19.70694155 379.17373124 -14.91748047 386.70141602 C-10.350448 393.93465523 -6.04096909 401.32470251 -1.6875 408.6875 C3.83676793 418.02996848 9.38724245 427.34878533 15.125 436.5625 C15.63869141 437.3875 16.15238281 438.2125 16.68164062 439.0625 C17.65566719 440.62603545 18.62978391 442.18951475 19.60400391 443.75292969 C21.86069878 447.385427 24.09519022 451.03084498 26.3125 454.6875 C26.69229004 455.30633057 27.07208008 455.92516113 27.46337891 456.56274414 C30 460.76768606 30 460.76768606 30 463 C-99.69 463 -229.38 463 -363 463 C-361.57181199 458.71543596 -360.48701477 455.8089992 -358.26953125 452.078125 C-357.72176025 451.14887207 -357.17398926 450.21961914 -356.60961914 449.26220703 C-356.01656982 448.26817871 -355.42352051 447.27415039 -354.8125 446.25 C-353.53580222 444.08632451 -352.25978329 441.92224834 -350.984375 439.7578125 C-350.32501953 438.64180664 -349.66566406 437.52580078 -348.98632812 436.37597656 C-345.81074644 430.9787367 -342.6862344 425.55236 -339.5625 420.125 C-338.30341652 417.94008624 -337.04430177 415.75519051 -335.78515625 413.5703125 C-335.16012207 412.48524414 -334.53508789 411.40017578 -333.89111328 410.28222656 C-330.76319852 404.85340058 -327.63141552 399.42680719 -324.5 394 C-323.24998121 391.83334417 -321.99998122 389.6666775 -320.75 387.5 C-303.25 357.16666667 -285.75 326.83333333 -268.25 296.5 C-267.63116943 295.42733887 -267.01233887 294.35467773 -266.37475586 293.24951172 C-265.12564482 291.08442929 -263.87645871 288.91939018 -262.62719727 286.75439453 C-259.48797691 281.31384294 -256.35009437 275.87252784 -253.21484375 270.4296875 C-247.19252671 259.97793801 -241.15330663 249.53700452 -235.0625 239.125 C-229.98724877 230.44737759 -224.97741233 221.73394432 -220 213 C-214.4599827 203.27884383 -208.86625191 193.59105342 -203.21655273 183.93310547 C-197.06233258 173.40915375 -190.97630004 162.84619863 -184.89111328 152.28222656 C-181.76319852 146.85340058 -178.63141552 141.42680719 -175.5 136 C-174.24998121 133.83334417 -172.99998122 131.6666775 -171.75 129.5 C-169.25 125.16666667 -166.75 120.83333333 -164.25 116.5 C-163.63116943 115.42733887 -163.01233887 114.35467773 -162.37475586 113.24951172 C-161.12564482 111.08442929 -159.87645871 108.91939018 -158.62719727 106.75439453 C-154.85654074 100.2195072 -151.08875505 93.6829755 -147.32299805 87.14526367 C-145.45258357 83.90116139 -143.57810654 80.65943309 -141.703125 77.41796875 C-139.21675004 73.11790246 -136.75063686 68.80703196 -134.296875 64.48828125 C-117.08013265 34.32604636 -95.81740702 10.25952174 -61.2409668 0.6496582 C-41.52747419 -4.49173196 -19.78135051 -5.38698299 0 0 Z " fill="#BD1E22" transform="translate(1483,3)"/>
<path d="M0 0 C38.94 0 77.88 0 118 0 C122.455 5.445 122.455 5.445 127 11 C128.84734115 13.19326719 130.70027858 15.38185293 132.5625 17.5625 C136.43352087 22.11189171 140.19963124 26.72836907 143.91015625 31.41015625 C146.37185226 34.46081879 148.89811125 37.45147194 151.4375 40.4375 C157.10932845 47.10691559 162.64955077 53.87822433 168.171875 60.671875 C172.23406081 65.65597532 176.33781943 70.59941456 180.5 75.5 C186.14840972 82.15048379 191.66823149 88.90120564 197.171875 95.671875 C201.1874514 100.59878789 205.2493488 105.47793409 209.375 110.3125 C213.1578153 114.74861488 216.80532258 119.26600025 220.375 123.875 C224.82926201 129.61865365 229.50929095 135.1273402 234.29541016 140.59619141 C238.9900572 145.96410722 243.51878809 151.45262615 248 157 C252.77775715 162.88164328 257.59471962 168.72448277 262.5 174.5 C268.14840972 181.15048379 273.66823149 187.90120564 279.171875 194.671875 C283.1874514 199.59878789 287.2493488 204.47793409 291.375 209.3125 C295.1578153 213.74861488 298.80532258 218.26600025 302.375 222.875 C306.82573236 228.61410225 311.50117751 234.11925551 316.28442383 239.58300781 C322.39057194 246.56303475 328.20667496 253.7583437 334 261 C334.33 174.87 334.66 88.74 335 0 C380.87 0 426.74 0 474 0 C474 164.34 474 328.68 474 498 C435.39 498 396.78 498 357 498 C351.04754796 490.96528396 345.12759346 483.95824098 339.31640625 476.81640625 C336.72212734 473.66214808 334.08393735 470.5479702 331.4375 467.4375 C327.56453634 462.8835757 323.79377305 458.26504947 320.08203125 453.578125 C317.66915908 450.59032832 315.18203921 447.66943803 312.6875 444.75 C308.88255447 440.29360367 305.2121094 435.75821394 301.625 431.125 C297.17085333 425.38126264 292.49070264 419.87265247 287.70458984 414.40380859 C283.0099428 409.03589278 278.48121191 403.54737385 274 398 C269.22224285 392.11835672 264.40528038 386.27551723 259.5 380.5 C253.85159028 373.84951621 248.33176851 367.09879436 242.828125 360.328125 C238.8125486 355.40121211 234.7506512 350.52206591 230.625 345.6875 C226.8421847 341.25138512 223.19467742 336.73399975 219.625 332.125 C215.17073799 326.38134635 210.49070905 320.8726598 205.70458984 315.40380859 C201.0099428 310.03589278 196.48121191 304.54737385 192 299 C187.22224285 293.11835672 182.40528038 287.27551723 177.5 281.5 C171.85159028 274.84951621 166.33176851 268.09879436 160.828125 261.328125 C156.18791046 255.63481212 151.48763813 249.99899105 146.71728516 244.41455078 C144.37617446 241.6656945 142.16929978 238.89239971 140 236 C139.67 322.46 139.34 408.92 139 498 C93.13 498 47.26 498 0 498 C0 333.66 0 169.32 0 0 Z " fill="#1D232E" transform="translate(636,1507)"/>
<path d="M0 0 C38.61 0 77.22 0 117 0 C123.55379721 7.64609675 129.82768856 14.99430264 135.95678711 22.89624023 C139.84241354 27.89272576 143.98804884 32.64009845 148.16381836 37.39428711 C151.74836017 41.49689686 155.1709972 45.68811977 158.5 50 C162.90833229 55.70723034 167.54711178 61.17068441 172.29589844 66.59667969 C176.99029366 71.96450878 181.51893211 77.45280443 186 83 C190.77775715 88.88164328 195.59471962 94.72448277 200.5 100.5 C206.14840972 107.15048379 211.66823149 113.90120564 217.171875 120.671875 C221.1874514 125.59878789 225.2493488 130.47793409 229.375 135.3125 C233.1578153 139.74861488 236.80532258 144.26600025 240.375 148.875 C244.82926201 154.61865365 249.50929095 160.1273402 254.29541016 165.59619141 C258.9900572 170.96410722 263.51878809 176.45262615 268 182 C272.77775715 187.88164328 277.59471962 193.72448277 282.5 199.5 C288.14840972 206.15048379 293.66823149 212.90120564 299.171875 219.671875 C303.18745317 224.59879006 307.24942083 229.477871 311.375 234.3125 C315.76236466 239.45902316 319.98523808 244.71665605 324.12060547 250.06762695 C327.30126445 254.17054293 330.60916003 258.04402003 334 262 C334.33 175.54 334.66 89.08 335 0 C380.87 0 426.74 0 474 0 C474 164.34 474 328.68 474 498 C435.06 498 396.12 498 356 498 C347 487 347 487 342.625 481.625 C339.33927902 477.60341443 335.99576691 473.63746911 332.625 469.6875 C328.8421847 465.25138512 325.19467742 460.73399975 321.625 456.125 C317.17073799 450.38134635 312.49070905 444.8726598 307.70458984 439.40380859 C303.0099428 434.03589278 298.48121191 428.54737385 294 423 C289.22224285 417.11835672 284.40528038 411.27551723 279.5 405.5 C273.85159028 398.84951621 268.33176851 392.09879436 262.828125 385.328125 C258.8125486 380.40121211 254.7506512 375.52206591 250.625 370.6875 C246.8421847 366.25138512 243.19467742 361.73399975 239.625 357.125 C235.17073799 351.38134635 230.49070905 345.8726598 225.70458984 340.40380859 C221.0099428 335.03589278 216.48121191 329.54737385 212 324 C207.22224285 318.11835672 202.40528038 312.27551723 197.5 306.5 C191.85159028 299.84951621 186.33176851 293.09879436 180.828125 286.328125 C176.76593919 281.34402468 172.66218057 276.40058544 168.5 271.5 C163.59467998 265.72443609 158.78034929 259.879574 154 254 C152.43848423 252.08253139 150.87598835 250.16586052 149.3125 248.25 C148.62800781 247.40953125 147.94351562 246.5690625 147.23828125 245.703125 C144.53227453 242.43513783 141.76124365 239.22145092 139 236 C138.67 322.46 138.34 408.92 138 498 C92.46 498 46.92 498 0 498 C0 333.66 0 169.32 0 0 Z " fill="#1C232E" transform="translate(1803,1507)"/>
<path d="M0 0 C42.631875 -0.061875 85.26375 -0.12375 129.1875 -0.1875 C149.30883911 -0.22846802 149.30883911 -0.22846802 169.83666992 -0.27026367 C186.33654785 -0.28381348 186.33654785 -0.28381348 194.0839386 -0.28633118 C199.44437227 -0.28910322 204.80471296 -0.29999734 210.16511536 -0.31672668 C216.37496146 -0.33607777 222.58471689 -0.34444966 228.79459323 -0.34033485 C231.9585327 -0.33855855 235.12223441 -0.34276441 238.28614461 -0.35764539 C287.63675031 -0.57865443 336.44619246 8.34403943 381 30 C382.1744165 30.56775146 382.1744165 30.56775146 383.37255859 31.14697266 C411.02452019 44.67805264 438.42349104 63.95582302 458 88 C458.96006886 89.12574139 459.92110641 90.25065696 460.8828125 91.375 C504.99550016 143.56016321 518.10347074 211.21396055 512.6875 277.859375 C509.09638819 317.59673725 496.63695591 357.48731968 473 390 C472.31679687 390.95519531 471.63359375 391.91039062 470.9296875 392.89453125 C458.38525302 410.04758414 443.94104194 426.09471099 427 439 C426.43168457 439.4340918 425.86336914 439.86818359 425.27783203 440.31542969 C417.38154581 446.31585139 409.35411173 451.97365593 400.77246094 456.96679688 C399.54497097 457.68232546 398.32192798 458.40551708 397.10253906 459.13476562 C346.49511862 489.31644829 287.78042134 498.20515663 229.77539062 498.11352539 C227.22030387 498.11321855 224.66521703 498.11335341 222.11013031 498.11389065 C215.99627198 498.1140924 209.88243164 498.10983989 203.76857719 498.10338932 C196.68393391 498.0961408 189.59929569 498.09539193 182.51464844 498.09460449 C163.84309663 498.08937112 145.17154808 498.07540986 126.5 498.0625 C84.755 498.041875 43.01 498.02125 0 498 C0 333.66 0 169.32 0 0 Z M141 113 C141 202.76 141 292.52 141 385 C242.69347939 391.09189902 242.69347939 391.09189902 332.26171875 348.73828125 C333.16535156 347.83464844 334.06898438 346.93101562 335 346 C335.79019531 345.20980469 336.58039062 344.41960937 337.39453125 343.60546875 C363.17117674 316.38424768 371.90398029 278.56094478 370.91845703 241.97265625 C369.37470606 206.82263417 358.24958625 174.29566214 333 149 C280.1245014 100.75531736 207.89993723 113 141 113 Z " fill="#1D232E" transform="translate(2393,1507)"/>
<path d="M0 0 C46.2 0 92.4 0 140 0 C148.09471578 17.34581954 148.09471578 17.34581954 151.1640625 24.16015625 C151.51814178 24.94474716 151.87222107 25.72933807 152.23703003 26.53770447 C153.36778927 29.04532574 154.49662637 31.55380443 155.625 34.0625 C156.21559204 35.37432251 156.21559204 35.37432251 156.81811523 36.71264648 C162.32428328 48.94919209 167.7283976 61.22272689 173.02587891 73.55102539 C177.56830758 84.08660234 182.2747972 94.54531717 187 105 C192.78793999 117.80602747 198.47945962 130.64273211 204.02734375 143.5546875 C208.56953063 154.08893638 213.27533816 164.54651406 218 175 C223.78793999 187.80602747 229.47945962 200.64273211 235.02734375 213.5546875 C239.56953063 224.08893638 244.27533816 234.54651406 249 245 C254.78793999 257.80602747 260.47945962 270.64273211 266.02734375 283.5546875 C270.56953145 294.08893827 275.27542562 304.54647305 280 315 C285.81264547 327.86174785 291.53151554 340.75374086 297.10864258 353.71948242 C301.37915766 363.62429013 305.76911503 373.47286677 310.1875 383.3125 C316.27411918 396.86743564 322.29077751 410.45107071 328.25 424.0625 C333.44999712 435.93959767 338.67918568 447.80150056 344 459.625 C347.97437313 468.46315121 351.92645739 477.31009491 355.8125 486.1875 C356.23982422 487.15703613 356.66714844 488.12657227 357.10742188 489.12548828 C357.49091797 490.00575684 357.87441406 490.88602539 358.26953125 491.79296875 C358.60573486 492.5614917 358.94193848 493.33001465 359.28833008 494.12182617 C360 496 360 496 360 498 C311.16 498 262.32 498 212 498 C205.73 482.36625 199.46 466.7325 193 450.625 C191.01613281 445.68354004 189.03226563 440.74208008 186.98828125 435.65087891 C184.57617188 429.62963867 184.57617188 429.62963867 183.44897461 426.81332397 C182.65857544 424.8404036 181.86680763 422.86803122 181.07397461 420.89608765 C179.87554472 417.91458003 178.68142611 414.93137968 177.48828125 411.94775391 C177.13228348 411.06495569 176.77628571 410.18215748 176.40950012 409.2726078 C175.9308979 408.07196977 175.9308979 408.07196977 175.44262695 406.84707642 C175.16240189 406.14835733 174.88217682 405.44963825 174.59346008 404.72974586 C174 403 174 403 174 401 C104.7 401 35.4 401 -36 401 C-37.485 405.455 -37.485 405.455 -39 410 C-39.76938094 412.04147035 -40.55758069 414.0760017 -41.36914062 416.10107422 C-41.81390747 417.21449188 -42.25867432 418.32790955 -42.71691895 419.47506714 C-43.42938782 421.24697922 -43.42938782 421.24697922 -44.15625 423.0546875 C-44.66389987 424.32227567 -45.17134139 425.58994729 -45.67858887 426.85769653 C-46.74280909 429.51595465 -47.80870477 432.17353203 -48.87597656 434.83056641 C-50.20809207 438.14697689 -51.53736691 441.46451533 -52.86552429 444.78251266 C-56.23229848 453.19293559 -59.61177286 461.59819812 -63 470 C-63.26407654 470.65511063 -63.52815308 471.31022125 -63.80023193 471.98518372 C-65.60166016 476.45299214 -67.40882548 480.91843904 -69.21875 485.3828125 C-69.68671997 486.54199188 -70.15468994 487.70117126 -70.63684082 488.89547729 C-71.06541382 489.94977936 -71.49398682 491.00408142 -71.93554688 492.09033203 C-72.49961243 493.48205124 -72.49961243 493.48205124 -73.07507324 494.90188599 C-74 497 -74 497 -75 498 C-76.86028034 498.09650437 -78.72427029 498.12187292 -80.58705139 498.12025452 C-81.80006424 498.12162918 -83.01307709 498.12300385 -84.2628479 498.12442017 C-85.61932397 498.12088056 -86.9757998 498.11724575 -88.33227539 498.11352539 C-89.75112404 498.11324352 -91.16997284 498.11340124 -92.58882141 498.1139679 C-96.45228801 498.11425589 -100.31572383 498.1083589 -104.17918324 498.10139394 C-108.21242573 498.09516067 -112.24566885 498.09455662 -116.27891541 498.09336853 C-123.92165468 498.09025514 -131.56437973 498.08204164 -139.20711273 498.07201904 C-147.90588019 498.06085816 -156.60464831 498.05534752 -165.30342114 498.05032361 C-183.20228884 498.03985903 -201.10114328 498.02225943 -219 498 C-218.38711512 494.78860997 -217.69253558 491.96888332 -216.35205078 488.98388672 C-216.01227707 488.22039917 -215.67250336 487.45691162 -215.32243347 486.67028809 C-214.95048355 485.84838989 -214.57853363 485.0264917 -214.1953125 484.1796875 C-213.80471146 483.30542114 -213.41411041 482.43115479 -213.01167297 481.53039551 C-212.16496964 479.63683008 -211.31592596 477.74430978 -210.46481323 475.85272217 C-209.104935 472.83040574 -207.7509832 469.80549863 -206.39868164 466.77978516 C-204.99411343 463.63726566 -203.58919539 460.49490832 -202.18244934 457.35336304 C-197.56581635 447.04263617 -192.99740996 436.71090748 -188.4375 426.375 C-187.25836805 423.70400196 -186.07903669 421.03309202 -184.89970398 418.36218262 C-184.11342251 416.58137371 -183.32721829 414.8005307 -182.54109192 413.01965332 C-179.76949169 406.741156 -176.99482029 400.46402198 -174.21875 394.1875 C-166.01277902 375.63216369 -157.8292395 357.06734596 -149.68283081 338.48577881 C-144.16577146 325.90406259 -138.60639586 313.34187479 -133.0166626 300.79229736 C-127.70185384 288.85744424 -122.43326982 276.90284914 -117.1875 264.9375 C-110.9997301 250.82419938 -104.79363977 236.71921045 -98.5625 222.625 C-98.16912445 221.73521454 -97.7757489 220.84542908 -97.37045288 219.92868042 C-95.37763581 215.42139815 -93.38445298 210.91427773 -91.39111328 206.40722656 C-87.82085713 198.33421864 -84.25379644 190.25979878 -80.68649292 182.18548584 C-78.70779268 177.70693279 -76.72888589 173.22847102 -74.75 168.75 C-73.95833234 166.95833377 -73.16666568 165.1666671 -72.375 163.375 C-70.79166667 159.79166667 -69.20833333 156.20833333 -67.625 152.625 C-67.23313004 151.73813507 -66.84126007 150.85127014 -66.43751526 149.93753052 C-65.64580169 148.14576038 -64.85408416 146.35399198 -64.06236267 144.56222534 C-62.08388118 140.08465616 -60.10546836 135.60705667 -58.12719727 131.12939453 C-54.55662573 123.0478661 -50.98556056 114.9665577 -47.41192627 106.88638306 C-45.42011221 102.38273842 -43.42872668 97.87890437 -41.4375 93.375 C-41.04600769 92.48955505 -40.65451538 91.60411011 -40.25115967 90.6918335 C-34.73553475 78.21503302 -29.24446234 65.72766062 -23.76831055 53.23348999 C-18.03645314 40.15612207 -12.28267257 27.08968205 -6.4375 14.0625 C-6.16101624 13.44618713 -5.88453247 12.82987427 -5.59967041 12.19488525 C-1.22649235 2.4529847 -1.22649235 2.4529847 0 0 Z M68 141 C67.62606865 141.93703766 67.62606865 141.93703766 67.24458313 142.89300537 C60.07961435 160.84067267 52.87872469 178.77381057 45.66796875 196.703125 C44.73177319 199.03120617 43.79558551 201.3592905 42.85940552 203.68737793 C38.98708043 213.3167494 35.11459232 222.94605503 31.24047852 232.57470703 C28.83966649 238.54174492 26.4398687 244.50918986 24.04070473 250.47689056 C23.13976281 252.71736251 22.23845723 254.95768826 21.33675194 257.19785309 C17.15065089 267.59799864 12.9736672 278.00119452 8.89575195 288.44433594 C8.45048676 289.58097372 8.45048676 289.58097372 7.99622631 290.74057388 C6.60536248 293.78491889 6.60536248 293.78491889 6 297 C47.58 297 89.16 297 132 297 C127.46972063 284.85695014 127.46972063 284.85695014 122.76220703 272.79199219 C122.48731445 272.10461472 122.21242188 271.41723724 121.92919922 270.70903015 C121.04037497 268.48765173 120.14912063 266.2672578 119.2578125 264.046875 C118.61360397 262.43823361 117.96955527 260.8295282 117.32565308 259.22076416 C115.6137259 254.94476217 113.89971886 250.66959685 112.18530273 246.39459229 C110.40218854 241.94717374 108.62108464 237.49895032 106.83984375 233.05078125 C104.31201391 226.73865312 101.78362314 220.42675031 99.25443649 214.11516571 C95.01749292 203.54179516 90.78447278 192.96686109 86.5546875 182.390625 C86.12706305 181.3213892 86.12706305 181.3213892 85.69079971 180.23055267 C84.31769911 176.79716351 82.9446821 173.36374093 81.57171631 169.93029785 C79.08997059 163.72416802 76.60744151 157.51835154 74.125 151.3125 C73.31510085 149.28776175 72.50520462 147.26302232 71.6953125 145.23828125 C71.36547363 144.41368408 71.03563477 143.58908691 70.69580078 142.73950195 C70.46618652 142.16546631 70.23657227 141.59143066 70 141 C69.34 141 68.68 141 68 141 Z " fill="#1D242E" transform="translate(1386,1507)"/>
<path d="M0 0 C1.54722952 0.00138269 1.54722952 0.00138269 3.12571621 0.00279331 C4.30507244 0.00141865 5.48442867 0.00004398 6.69952297 -0.00137234 C8.00503109 0.00222294 9.31053921 0.00581821 10.65560818 0.00952244 C12.03504846 0.00980431 13.4144889 0.00964658 14.7939291 0.00907993 C18.54996147 0.00879195 22.30596218 0.01468878 26.06198716 0.02165389 C29.98312073 0.02788732 33.90425496 0.02849122 37.82539272 0.0296793 C45.25563639 0.03279265 52.68586542 0.04100608 60.11610264 0.05102879 C68.57303667 0.06218982 77.02997138 0.06770035 85.48691094 0.07272422 C102.88812254 0.08318869 120.28931987 0.1007882 137.69052029 0.12304783 C156.85303464 42.612806 156.85303464 42.612806 163.59600735 58.0863657 C165.4123774 62.25334239 167.23719203 66.41662291 169.06161404 70.58007908 C169.43828716 71.43984348 169.81496029 72.29960789 170.20304775 73.18542576 C174.64125897 83.30595709 179.13416674 93.40213192 183.62802029 103.49804783 C190.17019275 118.19702503 196.69392793 132.90386603 203.19052029 147.62304783 C210.08473962 163.24198422 217.00756043 178.84798489 223.94674587 194.44699192 C230.53254694 209.25286856 237.09248293 224.06999046 243.63629055 238.89447117 C249.31106127 251.749787 255.00930853 264.59438926 260.72521877 277.43145847 C266.54381528 290.5032387 272.29631312 303.60353171 278.03845119 316.70904636 C283.20776493 328.50431989 288.42937611 340.27329573 293.71859646 352.01538181 C298.84284405 363.41369646 303.85292353 374.8614114 308.86678982 386.3085947 C314.09034024 398.23196365 319.36382953 410.12987079 324.71127224 421.99829197 C329.9028675 433.54482198 334.97615529 445.14270998 340.05081081 456.74099827 C344.95306645 467.94336896 349.88482899 479.12653833 355.05062771 490.21069431 C357.69052029 495.91749471 357.69052029 495.91749471 357.69052029 498.12304783 C308.85052029 498.12304783 260.01052029 498.12304783 209.69052029 498.12304783 C193.50302029 457.87304783 193.50302029 457.87304783 188.42025661 445.23144627 C186.89694038 441.44481611 186.89694038 441.44481611 185.37342739 437.65826511 C184.70254102 435.99056883 184.03194342 434.32275635 183.36158657 432.65484715 C182.33757406 430.10718064 181.31263339 427.55988943 180.28744411 425.01269627 C179.97286314 424.22973934 179.65828217 423.44678242 179.33416843 422.64009953 C177.13571358 417.18297021 174.86116462 411.76401016 172.51331997 406.36920261 C171.69052029 404.12304783 171.69052029 404.12304783 171.69052029 401.12304783 C67.74052029 401.61804783 67.74052029 401.61804783 -38.30947971 402.12304783 C-50.84947971 433.47304783 -63.38947971 464.82304783 -76.30947971 497.12304783 C-77.30947971 498.12304783 -77.30947971 498.12304783 -79.68142891 498.24609566 C-81.2729045 498.24471297 -81.2729045 498.24471297 -82.89653111 498.24330235 C-84.10954395 498.24467701 -85.3225568 498.24605167 -86.57232761 498.24746799 C-87.92880369 498.24392839 -89.28527951 498.24029357 -90.6417551 498.23657322 C-92.06060376 498.23629135 -93.47945256 498.23644907 -94.89830112 498.23701572 C-98.76176772 498.23730372 -102.62520354 498.23140673 -106.48866296 498.22444177 C-110.52190544 498.21820849 -114.55514856 498.21760445 -118.58839512 498.21641636 C-126.2311344 498.21330296 -133.87385944 498.20508947 -141.51659244 498.19506687 C-150.2153599 498.18390598 -158.91412802 498.17839534 -167.61290085 498.17337143 C-185.51176855 498.16290686 -203.41062299 498.14530726 -221.30947971 498.12304783 C-220.64042973 493.73939364 -219.65171934 490.22850531 -217.78213596 486.19726658 C-217.24669163 485.02977879 -216.71124729 483.86229099 -216.15957737 482.65942478 C-215.72491154 481.72388264 -215.72491154 481.72388264 -215.28146458 480.76944065 C-213.67957048 477.31920307 -212.10334498 473.8572352 -210.52432346 470.39648533 C-210.18542088 469.65507801 -209.84651829 468.91367069 -209.49734592 468.14979649 C-205.37953138 459.12105751 -201.41003512 450.02757217 -197.43447971 440.93554783 C-195.89613953 437.42090831 -194.35698177 433.90662766 -192.81729221 430.39257908 C-192.43792011 429.52668659 -192.05854801 428.66079411 -191.66767979 427.76866245 C-187.91301334 419.20611469 -184.11472231 410.66321015 -180.30947971 402.12304783 C-174.66548928 389.45287954 -169.06623127 376.76374328 -163.49697971 364.06054783 C-157.30920981 349.9472472 -151.10311948 335.84225828 -144.87197971 321.74804783 C-144.47860416 320.85826237 -144.08522861 319.96847691 -143.67993259 319.05172825 C-141.68711552 314.54444597 -139.69393269 310.03732555 -137.70059299 305.53027439 C-134.13033684 297.45726647 -130.56327615 289.38284661 -126.99597263 281.30853367 C-125.01727239 276.82998062 -123.03836561 272.35151884 -121.05947971 267.87304783 C-120.26781206 266.0813816 -119.47614539 264.28971493 -118.68447971 262.49804783 C-110.76781305 244.58138116 -102.85114638 226.6647145 -94.93447971 208.74804783 C-94.54260975 207.8611829 -94.15073978 206.97431797 -93.74699497 206.06057835 C-92.9552814 204.26880821 -92.16356387 202.47703981 -91.37184238 200.68527317 C-89.39336089 196.20770399 -87.41494807 191.7301045 -85.43667698 187.25244236 C-81.86607413 179.17084307 -78.29497275 171.08946599 -74.72131443 163.00921726 C-66.56065099 144.55737528 -58.41333228 126.09992033 -50.30947971 107.62304783 C-43.40672953 91.88470191 -36.47755208 76.15822315 -29.52481174 60.44189548 C-28.73818551 58.6637402 -27.95156444 56.88558264 -27.16494846 55.10742283 C-26.77365757 54.22295475 -26.38236668 53.33848667 -25.97921848 52.42721653 C-23.40740976 46.61182479 -20.84205934 40.79361941 -18.28059483 34.97366428 C-16.51001546 30.95091719 -14.73777855 26.92890127 -12.96545506 22.90692234 C-12.11528652 20.97633594 -11.26593405 19.04538996 -10.41742039 17.11407566 C-9.24550269 14.44687245 -8.07077657 11.78092329 -6.89541721 9.11523533 C-6.54534107 8.31643955 -6.19526493 7.51764378 -5.83458042 6.69464207 C-2.94622924 0.1569735 -2.94622924 0.1569735 0 0 Z M65.69052029 140.12304783 C65.37469683 140.91785447 65.37469683 140.91785447 65.0524931 141.7287178 C59.86826076 154.77502865 54.68171266 167.82041695 49.49275494 180.86484909 C46.98320807 187.17370967 44.47438495 193.48285609 41.96737576 199.79272556 C21.67295462 250.86792801 21.67295462 250.86792801 12.94833279 271.69775486 C10.7112854 277.04221261 8.55952251 282.41831446 6.44052029 287.81054783 C6.00929867 288.90439541 6.00929867 288.90439541 5.5693655 290.02034092 C4.16295506 293.47058158 4.16295506 293.47058158 3.69052029 297.12304783 C45.27052029 297.12304783 86.85052029 297.12304783 129.69052029 297.12304783 C122.23425394 277.57891411 122.23425394 277.57891411 114.35458279 258.22851658 C108.70107938 244.70674687 103.2612472 231.10222482 97.83895779 217.48632908 C96.95717458 215.2737409 96.07535884 213.06116567 95.19351101 210.84860325 C91.5491532 201.7024481 87.90735094 192.55528288 84.27206326 183.40551853 C82.01920142 177.73585002 79.76137265 172.06818169 77.50029278 166.40178585 C76.64594273 164.25786141 75.79350795 162.1131727 74.94303417 159.96770763 C73.76638333 156.99977251 72.58345827 154.03441376 71.39901638 151.06958103 C71.05102993 150.18725803 70.70304348 149.30493504 70.34451199 148.39587498 C70.02253841 147.59361988 69.70056484 146.79136478 69.3688345 145.96479893 C69.09129015 145.26687387 68.8137458 144.5689488 68.52779102 143.8498745 C67.71102306 141.9250418 67.71102306 141.9250418 65.69052029 140.12304783 Z " fill="#1D242E" transform="translate(222.30947971343994,1506.8769521713257)"/>
<path d="M0 0 C19 0 19 0 25 5.625 C26.49291992 7.55029297 26.49291992 7.55029297 27.54296875 9.2421875 C29.92731913 12.93046463 32.5659604 16.32694849 35.3125 19.75 C36.22885875 20.92370366 37.1442002 22.09820217 38.05859375 23.2734375 C41.84000723 28.09457864 45.75157736 32.80745141 49.65625 37.52880859 C54.23395436 43.06437505 58.77580923 48.62778546 63.29833984 54.20849609 C67.84761086 59.82072323 72.42495071 65.40827309 77 71 C77.33 47.57 77.66 24.14 78 0 C85.26 0 92.52 0 100 0 C100 36.63 100 73.26 100 111 C81 111 81 111 74.8125 105.125 C73.29174805 103.16186523 73.29174805 103.16186523 72.26171875 101.49609375 C70.37942228 98.5643126 68.35178195 95.87341224 66.125 93.1875 C65.49207031 92.38957031 64.85914063 91.59164062 64.20703125 90.76953125 C61.43126589 87.28631419 58.62299213 83.83021803 55.8125 80.375 C55.25852539 79.69348877 54.70455078 79.01197754 54.13378906 78.30981445 C51.31219538 74.83954595 48.48780051 71.37158998 45.66015625 67.90625 C39.84378223 60.77172731 34.07268402 53.60880604 28.42529297 46.33935547 C26.69471422 44.11790726 24.99354731 41.99354731 23 40 C22.67 63.43 22.34 86.86 22 111 C14.74 111 7.48 111 0 111 C0 74.37 0 37.74 0 0 Z " fill="#D20818" transform="translate(625,2130)"/>
<path d="M0 0 C19 0 19 0 23.53125 3.2265625 C25.08862305 5.33300781 25.08862305 5.33300781 26.5 7.625 C27.05147705 8.39682617 27.6029541 9.16865234 28.17114258 9.96386719 C29.29134934 11.5341931 30.38805591 13.12157445 31.45947266 14.72558594 C33.7023117 18.03688365 36.1871242 21.13177933 38.6875 24.25 C39.57348125 25.38497617 40.45890346 26.52038897 41.34375 27.65625 C44.49216678 31.65483273 47.78734825 35.52395685 51.09106445 39.39428711 C54.38843709 43.26096483 57.58877988 47.19062745 60.74609375 51.171875 C63.78695563 54.98744519 66.86145001 58.77527527 69.9375 62.5625 C70.51806152 63.27833252 71.09862305 63.99416504 71.69677734 64.73168945 C72.23898926 65.399021 72.78120117 66.06635254 73.33984375 66.75390625 C73.82831787 67.35533447 74.31679199 67.9567627 74.82006836 68.57641602 C75.93250411 69.96356369 75.93250411 69.96356369 77 71 C77.33 47.57 77.66 24.14 78 0 C84.93 0 91.86 0 99 0 C99 36.63 99 73.26 99 111 C81 111 81 111 76.8984375 108.2890625 C75.55883789 106.53173828 75.55883789 106.53173828 74.375 104.625 C73.90376709 103.98159668 73.43253418 103.33819336 72.94702148 102.67529297 C72.01120966 101.39265299 71.09758653 100.09346032 70.20947266 98.77734375 C68.62424643 96.44782277 66.85754155 94.29540221 65.0625 92.125 C64.44117188 91.33867187 63.81984375 90.55234375 63.1796875 89.7421875 C60.37965 86.21955968 57.53203064 82.73672434 54.6875 79.25 C50.52728918 74.14638451 46.42017328 69.00769272 42.375 63.8125 C38.24924147 58.51647962 33.98702662 53.3553019 29.61474609 48.26098633 C27.30223614 45.56392514 25.13536565 42.8471542 23 40 C22.67 63.43 22.34 86.86 22 111 C14.74 111 7.48 111 0 111 C0 74.37 0 37.74 0 0 Z " fill="#D10818" transform="translate(1265,2130)"/>
<path d="M0 0 C9.9825 -0.061875 19.965 -0.12375 30.25 -0.1875 C33.37758789 -0.21481201 36.50517578 -0.24212402 39.72753906 -0.27026367 C42.24023046 -0.27903549 44.75292616 -0.28667778 47.265625 -0.29296875 C48.5429248 -0.30831665 49.82022461 -0.32366455 51.13623047 -0.33947754 C68.1637773 -0.34438744 83.4555005 4.65982836 95.8828125 16.6796875 C107.77851663 29.7166769 110.92330517 44.7093048 110.14794922 61.92529297 C109.1190498 76.35365484 102.54868885 88.28061059 92 98 C78.34350211 108.42206418 64.41698676 111.32875486 47.55859375 111.1953125 C46.34884888 111.19329834 45.139104 111.19128418 43.8927002 111.18920898 C39.40759446 111.17880695 34.92254311 111.15088472 30.4375 111.125 C20.393125 111.08375 10.34875 111.0425 0 111 C0 74.37 0 37.74 0 0 Z M22 18 C22 42.75 22 67.5 22 93 C52.75606322 94.64446831 52.75606322 94.64446831 78.26171875 81.99609375 C86.38264207 73.60497335 88.6377795 64.6648512 88.46655273 53.27514648 C87.95569781 41.58035758 83.6060278 33.90553717 75 26 C60.30186889 13.8871133 39.35364898 18 22 18 Z " fill="#D10818" transform="translate(404,2130)"/>
<path d="M0 0 C6.27 0 12.54 0 19 0 C25.69020136 6.89927016 25.69020136 6.89927016 27.53125 10.07421875 C29.86334189 13.88435769 32.5487864 17.15815417 35.5 20.5 C39.28911679 24.90921516 42.93300141 29.40960422 46.5 34 C50.56916079 39.23582295 54.77056415 44.33210878 59.07495117 49.37573242 C65.33663363 56.7207119 71.207679 64.27690534 77 72 C77.33 48.24 77.66 24.48 78 0 C84.93 0 91.86 0 99 0 C99 36.63 99 73.26 99 111 C81 111 81 111 76.5625 107.375 C75.33842367 105.60812059 74.15463409 103.81302118 73 102 C71.27319714 99.71489694 69.47495686 97.48779351 67.6875 95.25 C66.74284482 94.03696017 65.79883878 92.82341455 64.85546875 91.609375 C62.15448776 88.16523286 59.34778596 84.82309403 56.5 81.5 C52.31454661 76.61006436 48.30186785 71.61242195 44.35131836 66.53149414 C38.89709267 59.54105784 33.22786676 52.72740446 27.56469727 45.90600586 C25.688881 43.62101637 23.84680223 41.30850279 22 39 C21.67 62.76 21.34 86.52 21 111 C14.07 111 7.14 111 0 111 C0 74.37 0 37.74 0 0 Z " fill="#D10818" transform="translate(1810,2130)"/>
<path d="M0 0 C9.920625 -0.0825 19.84125 -0.165 30.0625 -0.25 C34.71291382 -0.30462402 34.71291382 -0.30462402 39.45727539 -0.36035156 C41.96239534 -0.37205293 44.467523 -0.3822413 46.97265625 -0.390625 C48.23460815 -0.41108887 49.49656006 -0.43155273 50.79675293 -0.45263672 C67.94693778 -0.45923231 83.11860328 4.57071391 95.7109375 16.5234375 C106.44193296 28.13342235 110.32676031 42.29333235 110.15234375 57.81640625 C109.43138613 72.8825719 104.61253071 85.60495744 93.6796875 96.26171875 C79.67878359 108.07920195 64.365007 111.51360743 46.38671875 111.29296875 C45.2006604 111.28994751 44.01460205 111.28692627 42.79260254 111.28381348 C38.42414463 111.26829125 34.0558122 111.22640953 29.6875 111.1875 C19.890625 111.125625 10.09375 111.06375 0 111 C0 74.37 0 37.74 0 0 Z M21 18 C21 42.75 21 67.5 21 93 C51.73236872 94.79395505 51.73236872 94.79395505 78.03515625 82.1484375 C86.29950855 73.34014694 88.50745443 63.69232022 88.27734375 51.8984375 C87.58047286 42.10298467 83.34341686 33.96338937 76.1875 27.31640625 C60.04080627 14.26232523 41.50468279 18 21 18 Z " fill="#D10818" transform="translate(2740,2130)"/>
<path d="M0 0 C10.51805722 9.05042133 17.8508653 20.83618752 19.91796875 34.70703125 C20.69520837 46.60041674 20.63161008 57.61033396 15.91796875 68.70703125 C15.62921875 69.43664063 15.34046875 70.16625 15.04296875 70.91796875 C9.35877329 83.75816028 -1.84176961 93.46205836 -14.70703125 98.64453125 C-16.81979426 99.36876443 -18.94443169 100.05976828 -21.08203125 100.70703125 C-22.29246094 101.07441406 -22.29246094 101.07441406 -23.52734375 101.44921875 C-40.06110946 105.54062518 -57.98580138 102.62996565 -72.8203125 94.72265625 C-85.25437249 87.03885391 -93.3341678 76.39423135 -98.08203125 62.70703125 C-98.32953125 62.00320312 -98.57703125 61.299375 -98.83203125 60.57421875 C-102.83138125 46.40985415 -100.44313348 30.18829683 -94.14453125 17.20703125 C-85.5221533 2.20768628 -72.31842241 -6.7241273 -55.76953125 -11.29296875 C-36.2045577 -15.03583326 -16.19282375 -12.0471325 0 0 Z M-69.39453125 18.95703125 C-77.72804643 29.58699806 -79.15388787 40.6174813 -78.08203125 53.70703125 C-76.31661876 62.95014633 -71.10049244 70.76217121 -63.7265625 76.55859375 C-53.71069252 83.02352732 -42.51637579 85.4019713 -30.81640625 83.05078125 C-19.91742913 80.11059207 -11.88707411 74.45879532 -6.08203125 64.70703125 C-1.06090457 55.19585859 0.0406465 44.93005248 -2.23046875 34.4375 C-5.07281837 25.32372759 -10.2600818 17.22837165 -18.50390625 12.2421875 C-35.27943814 3.47315947 -55.93463954 4.36113845 -69.39453125 18.95703125 Z " fill="#D10818" transform="translate(1204.08203125,2140.29296875)"/>
<path d="M0 0 C14.2621875 -0.0928125 14.2621875 -0.0928125 28.8125 -0.1875 C31.7925708 -0.21481201 34.7726416 -0.24212402 37.84301758 -0.27026367 C40.23518469 -0.27903487 42.62735633 -0.28667731 45.01953125 -0.29296875 C46.23717163 -0.30831665 47.45481201 -0.32366455 48.70935059 -0.33947754 C61.76844825 -0.34343444 74.44354685 2.5877002 84.3125 11.625 C92.75270488 20.62902424 94.42152552 31.32467437 94.2109375 43.20703125 C93.6663546 52.99943853 90.00124231 61.37211432 82.75 68.08203125 C76.41030069 73.20175553 76.41030069 73.20175553 72 74 C75.34655696 80.5777154 79.3590519 86.35039887 83.75439453 92.24682617 C96 108.7063972 96 108.7063972 96 111 C88.07847464 112.48330166 79.76033877 113.65746556 72 111 C65.47085217 105.66889435 61.48821265 98.04234717 57.52587891 90.72607422 C56.16955265 88.30291598 54.72543884 86.10652286 53.07421875 83.87890625 C51 81 51 81 51 79 C41.43 79 31.86 79 22 79 C22 89.56 22 100.12 22 111 C14.74 111 7.48 111 0 111 C0 74.37 0 37.74 0 0 Z M22 18 C22 32.19 22 46.38 22 61 C26.888125 61.0825 31.77625 61.165 36.8125 61.25 C38.33077393 61.28641602 39.84904785 61.32283203 41.41333008 61.36035156 C50.05871365 61.43049666 59.19233302 61.29363228 65.9934082 55.21972656 C71.52795092 49.15386086 72.4058568 44.26690753 72.2421875 36.12890625 C71.74820587 29.74698231 68.84886526 26.49785594 64.3046875 22.39453125 C55.66581414 17.16728076 46.72781669 17.63847046 36.9375 17.8125 C32.008125 17.874375 27.07875 17.93625 22 18 Z " fill="#D10818" transform="translate(1674,2130)"/>
<path d="M0 0 C9.466875 -0.0825 18.93375 -0.165 28.6875 -0.25 C33.13029419 -0.30462402 33.13029419 -0.30462402 37.6628418 -0.36035156 C40.04996011 -0.37205041 42.4370865 -0.38223939 44.82421875 -0.390625 C46.63533142 -0.4213208 46.63533142 -0.4213208 48.48303223 -0.45263672 C61.33346484 -0.45782934 74.12241696 2.76895725 83.80859375 11.66015625 C91.3964801 19.96709418 94.52724273 30.18252636 94.25 41.32421875 C93.10165883 53.61505788 88.49190604 63.0970474 79 71 C73.87096774 74 73.87096774 74 71 74 C76.0706275 81.74016374 81.31039648 89.33721764 86.69824219 96.85913086 C89.98185732 101.46764651 93.05602041 106.16744498 96 111 C75.95043953 113.35266837 75.95043953 113.35266837 69.9609375 109.78564453 C65.39364113 105.37141879 62.58601675 99.44057328 59.95605469 93.73535156 C56.28945658 85.80302674 56.28945658 85.80302674 50 80 C40.74789226 77.73045629 31.46666796 78.6444444 22 79 C22 89.56 22 100.12 22 111 C14.74 111 7.48 111 0 111 C0 74.37 0 37.74 0 0 Z M22 18 C22 32.19 22 46.38 22 61 C26.929375 61.061875 31.85875 61.12375 36.9375 61.1875 C38.47398193 61.21481201 40.01046387 61.24212402 41.59350586 61.27026367 C50.2905867 61.32297325 58.22835972 61.13658377 65.375 55.625 C70.1446635 50.8553365 72.10583503 46.42964345 72.25 39.75 C72.15006704 34.217348 71.14215433 29.63008948 67.59375 25.2734375 C58.95998986 17.00620491 47.59998871 17.60467525 36.375 17.8125 C31.63125 17.874375 26.8875 17.93625 22 18 Z " fill="#D10818" transform="translate(130,2130)"/>
<path d="M0 0 C27.06 0 54.12 0 82 0 C82 5.94 82 11.88 82 18 C62.2 18 42.4 18 22 18 C22 27.24 22 36.48 22 46 C39.49 46 56.98 46 75 46 C75 51.94 75 57.88 75 64 C57.51 64 40.02 64 22 64 C22 73.57 22 83.14 22 93 C42.46 93 62.92 93 84 93 C84 98.94 84 104.88 84 111 C56.28 111 28.56 111 0 111 C0 74.37 0 37.74 0 0 Z " fill="#D20818" transform="translate(1548,2130)"/>
<path d="M0 0 C2.79255814 2.21355885 5.44060761 4.52127613 8 7 C6.38989473 11.07376031 3.46177729 13.76507069 0.375 16.75 C-0.140625 17.25660156 -0.65625 17.76320313 -1.1875 18.28515625 C-2.45383339 19.52803902 -3.7263144 20.76465276 -5 22 C-5.556875 21.61328125 -6.11375 21.2265625 -6.6875 20.828125 C-19.34477172 12.19039227 -30.84871297 7.72248604 -46.48046875 10.65234375 C-56.24292889 13.31899464 -63.90126653 18.27233229 -69.71484375 26.64453125 C-75.51525807 37.27568576 -76.53254034 48.0755421 -73.4375 59.625 C-70.06042894 69.57909407 -64.22816206 76.06031257 -55 81 C-43.03369265 86.47829152 -31.35907817 86.00338639 -19 82 C-17.68 81.34 -16.36 80.68 -15 80 C-14.67 68.78 -14.34 57.56 -14 46 C-7.4 46 -0.8 46 6 46 C6 61.18 6 76.36 6 92 C-13.81233714 103.32133551 -33.96239291 108.8847333 -56.31884766 102.83178711 C-71.12430983 98.44245937 -82.73798913 90.16375196 -90.5703125 76.69140625 C-91.04210937 75.80324219 -91.51390625 74.91507813 -92 74 C-92.40992188 73.24589844 -92.81984375 72.49179688 -93.2421875 71.71484375 C-99.47254299 58.45828443 -99.18956446 41.52940558 -95.02734375 27.7890625 C-89.20638009 12.43750411 -78.46422854 1.20938489 -63.5859375 -5.5234375 C-43.59988097 -13.75299019 -18.05854368 -12.39883856 0 0 Z " fill="#D10818" transform="translate(863,2138)"/>
<path d="M0 0 C9.466875 -0.0825 18.93375 -0.165 28.6875 -0.25 C33.13029419 -0.30462402 33.13029419 -0.30462402 37.6628418 -0.36035156 C40.04996011 -0.37205041 42.4370865 -0.38223939 44.82421875 -0.390625 C46.63533142 -0.4213208 46.63533142 -0.4213208 48.48303223 -0.45263672 C60.58470076 -0.45752678 72.34888267 2.37085972 82 10 C89.77890678 17.79386622 93.47139993 27.00479869 94.03125 37.921875 C93.91750256 49.12599781 91.0681709 58.87371261 83.4375 67.25 C73.82566492 76.20895572 61.8357853 79.36862461 49.02734375 79.1953125 C47.81456505 79.19106766 47.81456505 79.19106766 46.57728577 79.18673706 C44.03053082 79.17566777 41.4841461 79.15058958 38.9375 79.125 C37.19596867 79.11495302 35.45443175 79.1058302 33.71289062 79.09765625 C29.47500792 79.07748546 25.23791143 79.03831361 21 79 C21 89.56 21 100.12 21 111 C14.07 111 7.14 111 0 111 C0 74.37 0 37.74 0 0 Z M21 18 C21 32.19 21 46.38 21 61 C25.74375 61.061875 30.4875 61.12375 35.375 61.1875 C36.8501709 61.21481201 38.3253418 61.24212402 39.84521484 61.27026367 C49.35941617 61.33000849 58.75143438 60.72922629 66.52734375 54.64453125 C70.35073811 50.37490518 71.76519201 44.94555192 72.4375 39.375 C71.62036054 33.07135276 69.62919224 27.50407894 65 23 C58.35818509 18.86979577 52.5289902 17.87025107 44.73046875 17.90234375 C43.48418701 17.90484131 42.23790527 17.90733887 40.95385742 17.90991211 C39.38095947 17.91901611 37.80806152 17.92812012 36.1875 17.9375 C31.175625 17.958125 26.16375 17.97875 21 18 Z " fill="#D10818" transform="translate(2022,2130)"/>
<path d="M0 0 C7.26 0 14.52 0 22 0 C27.46397396 10.80059669 32.68729434 21.66599047 37.6875 32.6875 C38.38567513 34.22093348 39.08400158 35.75429807 39.7824707 37.28759766 C45.16877026 49.12310808 50.50418993 60.98129044 55.8046875 72.85546875 C57.77836428 77.27618382 59.76189321 81.69220886 61.7575531 86.10302734 C62.98254344 88.81065524 64.20489228 91.51947225 65.42715454 94.22833252 C66.01323742 95.5252664 66.60060151 96.82162214 67.18930054 98.11737061 C68.00064301 99.90355259 68.8070875 101.69195699 69.61328125 103.48046875 C70.07516846 104.50035889 70.53705566 105.52024902 71.01293945 106.57104492 C72 109 72 109 72 111 C64.41 111 56.82 111 49 111 C47.3289175 107.21022361 45.66295702 103.41833979 44 99.625 C43.52304687 98.54476562 43.04609375 97.46453125 42.5546875 96.3515625 C42.10351562 95.3203125 41.65234375 94.2890625 41.1875 93.2265625 C40.76855469 92.27346191 40.34960938 91.32036133 39.91796875 90.33837891 C39 88 39 88 39 86 C11.775 86.495 11.775 86.495 -16 87 C-19.3 94.59 -22.6 102.18 -26 110 C-27 111 -27 111 -29.13305664 111.11352539 C-30.04949951 111.10828857 -30.96594238 111.10305176 -31.91015625 111.09765625 C-32.89951172 111.09443359 -33.88886719 111.09121094 -34.90820312 111.08789062 C-35.94912109 111.07951172 -36.99003906 111.07113281 -38.0625 111.0625 C-39.10728516 111.05798828 -40.15207031 111.05347656 -41.22851562 111.04882812 C-43.8190666 111.03699913 -46.40950559 111.02051689 -49 111 C-46.71786614 103.56164562 -43.6504596 96.70729963 -40.3125 89.6875 C-39.13218566 87.18049876 -37.95771934 84.67079121 -36.78515625 82.16015625 C-36.47802704 81.50275452 -36.17089783 80.84535278 -35.85446167 80.16802979 C-32.22080142 72.36447799 -28.73329778 64.49653057 -25.25 56.625 C-24.5869961 55.1275225 -23.92399153 53.63004529 -23.26098633 52.13256836 C-22.24347364 49.83419963 -21.22601955 47.53580522 -20.20890808 45.23725891 C-15.99927438 35.7295979 -11.74918751 26.24003179 -7.5 16.75 C-6.74380871 15.0607125 -5.98762364 13.37142221 -5.23144531 11.68212891 C-3.48816911 7.78784424 -1.74406668 3.89393106 0 0 Z M11 23 C6.59732126 31.34474936 2.90833701 39.97987004 -0.78588867 48.65307617 C-1.82421643 51.08999808 -2.86783024 53.52460765 -3.91210938 55.95898438 C-4.57322427 57.50507684 -5.23404282 59.05129606 -5.89453125 60.59765625 C-6.20695267 61.3267067 -6.51937408 62.05575714 -6.84126282 62.80690002 C-8.34395867 65.80320913 -8.34395867 65.80320913 -9 69 C4.2 69 17.4 69 31 69 C28.78393347 62.18041677 28.78393347 62.18041677 26.19067383 55.58178711 C25.87056839 54.84169907 25.55046295 54.10161102 25.22065735 53.33909607 C24.88616074 52.5762178 24.55166412 51.81333954 24.20703125 51.02734375 C23.85613937 50.21882462 23.5052475 49.41030548 23.14372253 48.57728577 C22.03687574 46.02912408 20.92478979 43.48328976 19.8125 40.9375 C19.05498888 39.19611561 18.29782424 37.45458045 17.54101562 35.71289062 C15.69800667 31.47350899 13.85029978 27.23620429 12 23 C11.67 23 11.34 23 11 23 Z " fill="#D10818" transform="translate(299,2130)"/>
<path d="M0 0 C2.4581654 2.15046256 4.83695481 4.25669088 7.02734375 6.6796875 C7.02734375 7.3396875 7.02734375 7.9996875 7.02734375 8.6796875 C5.453125 10.23046875 5.453125 10.23046875 3.33984375 11.9921875 C0.07433411 14.76468058 -2.9918161 17.60569609 -5.97265625 20.6796875 C-8.95306946 19.27357833 -11.5850327 17.62699843 -14.28515625 15.7421875 C-23.37975003 9.61939037 -32.04729992 7.76924114 -42.97265625 8.6796875 C-54.40260839 10.98411333 -63.33396472 15.96789248 -69.97265625 25.6796875 C-75.36726503 35.69332233 -76.80064929 46.8299078 -73.84765625 57.9296875 C-70.46627054 67.66302206 -64.11965072 75.04277383 -55.09765625 79.9296875 C-44.24637478 84.93797125 -33.48284812 84.78486916 -22.24609375 81.1015625 C-16.88859834 78.77444039 -12.45629612 75.3816106 -7.97265625 71.6796875 C-4.07347657 73.29506194 -1.25971853 75.95893623 1.77734375 78.8046875 C2.28394531 79.27261719 2.79054688 79.74054687 3.3125 80.22265625 C4.55453516 81.37095291 5.79145869 82.52477422 7.02734375 83.6796875 C0.29176539 94.5637698 -11.47354563 100.01277845 -23.66015625 102.9921875 C-41.30550828 105.93780004 -58.69846375 103.12556971 -73.97265625 93.6796875 C-88.27111582 82.91719834 -95.36719292 69.27161431 -97.97265625 51.6796875 C-99.44328676 37.19498427 -95.64389466 21.92928551 -86.5234375 10.515625 C-65.8288165 -13.928649 -26.00390008 -20.29739376 0 0 Z " fill="#D10818" transform="translate(1502.97265625,2139.3203125)"/>
<path d="M0 0 C3.17559029 2.50348382 6.134231 5.14870458 9 8 C8.58685438 12.44926052 5.49538473 14.84100104 2.4375 17.75 C1.91736328 18.25660156 1.39722656 18.76320313 0.86132812 19.28515625 C-0.41910084 20.53034405 -1.70867554 21.76611502 -3 23 C-5.98041321 21.59389083 -8.61237645 19.94731093 -11.3125 18.0625 C-20.40709378 11.93970287 -29.07464367 10.08955364 -40 11 C-51.42140246 13.30270211 -60.37286979 18.28545304 -67 28 C-72.39238594 38.16456136 -73.88795453 49.02278216 -70.875 60.3125 C-67.60140674 69.60036925 -61.33438899 77.81829927 -52.44140625 82.28515625 C-41.0462303 87.00915936 -30.7599218 87.19080727 -19.03125 83.28125 C-13.85747226 81.09439549 -9.93850199 77.93850199 -6 74 C-1.76334452 74.14059697 0.85673914 77.3021317 3.75 80.0625 C4.25660156 80.53494141 4.76320313 81.00738281 5.28515625 81.49414062 C6.52949613 82.65630711 7.76558064 83.82730161 9 85 C8.03626276 90.2041811 5.08168311 92.82093299 1 96 C-14.92281659 105.70514603 -31.96942772 108.2257395 -50.1875 104.9375 C-64.56785264 101.38781479 -77.09079768 93.50067605 -85.625 81.28125 C-95.16409305 65.45502744 -97.18522083 48.89542701 -93 31 C-90.67338233 22.86908352 -86.28653165 16.52509049 -81 10 C-80.47792969 9.3503125 -79.95585938 8.700625 -79.41796875 8.03125 C-60.21114882 -13.36368866 -23.21739137 -14.54311598 0 0 Z " fill="#D10818" transform="translate(1066,2137)"/>
<path d="M0 0 C7.92 0 15.84 0 24 0 C33.31038407 20.43447933 42.20709053 41.03534091 51.0144043 61.69116211 C51.68487793 63.26225235 51.68487793 63.26225235 52.36889648 64.86508179 C53.21507471 66.84855552 54.06010383 68.83252 54.90380859 70.81704712 C55.28255127 71.70508026 55.66129395 72.5931134 56.05151367 73.50805664 C56.38092453 74.28218399 56.71033539 75.05631134 57.04972839 75.85389709 C57.97234113 77.93753493 58.96352811 79.97094263 60 82 C74.13311413 50.28122425 74.13311413 50.28122425 88.125 18.5 C88.5612973 17.50359497 88.5612973 17.50359497 89.00640869 16.48706055 C91.40212573 11.01338766 93.78075521 5.54811199 96 0 C103.26 0 110.52 0 118 0 C116.04582462 5.86252614 114.07220979 11.42512897 111.5859375 17.0390625 C111.25901413 17.78606415 110.93209076 18.5330658 110.59526062 19.30270386 C109.52543877 21.74506544 108.45020551 24.18500434 107.375 26.625 C106.61864321 28.34942696 105.86271003 30.07403977 105.10717773 31.79882812 C103.53353702 35.39036887 101.95807076 38.98110052 100.38134766 42.57128906 C96.95374633 50.37997314 93.54920013 58.19869507 90.144104 66.01721191 C89.07055768 68.48150386 87.9961216 70.9454059 86.92138672 73.40917969 C83.85342751 80.44317701 80.78960425 87.47882185 77.74609375 94.5234375 C77.03731079 96.1621582 77.03731079 96.1621582 76.31420898 97.83398438 C75.46659236 99.79532798 74.62090635 101.7575076 73.77758789 103.72070312 C73.23799438 104.96883789 73.23799438 104.96883789 72.6875 106.2421875 C72.38199219 106.9522998 72.07648437 107.66241211 71.76171875 108.39404297 C71 110 71 110 70 111 C68.36527118 111.08700342 66.72685945 111.10701063 65.08984375 111.09765625 C64.10048828 111.09443359 63.11113281 111.09121094 62.09179688 111.08789062 C61.05087891 111.07951172 60.00996094 111.07113281 58.9375 111.0625 C57.89271484 111.05798828 56.84792969 111.05347656 55.77148438 111.04882812 C53.1809334 111.03699913 50.59049441 111.02051689 48 111 C36.95600453 85.87944452 25.93993861 60.74701146 14.99414062 35.58349609 C13.66307887 32.52350264 12.3310162 29.46394813 10.99804688 26.40478516 C9.43210566 22.81082769 7.86795567 19.21609656 6.30532837 15.62069702 C5.73136835 14.30079283 5.15681336 12.98114719 4.58163452 11.66177368 C3.80140456 9.87161705 3.02367273 8.08037222 2.24609375 6.2890625 C1.80966553 5.28568848 1.3732373 4.28231445 0.92358398 3.24853516 C0 1 0 1 0 0 Z " fill="#D10818" transform="translate(2138,2130)"/>
<path d="M0 0 C31.35 0 62.7 0 95 0 C95 5.94 95 11.88 95 18 C83.12 18 71.24 18 59 18 C59 48.69 59 79.38 59 111 C51.74 111 44.48 111 37 111 C37 80.31 37 49.62 37 18 C24.79 18 12.58 18 0 18 C0 12.06 0 6.12 0 0 Z " fill="#D10818" transform="translate(2610,2130)"/>
<path d="M0 0 C31.35 0 62.7 0 95 0 C95 5.94 95 11.88 95 18 C83.12 18 71.24 18 59 18 C59 48.69 59 79.38 59 111 C51.74 111 44.48 111 37 111 C37 80.31 37 49.62 37 18 C24.79 18 12.58 18 0 18 C0 12.06 0 6.12 0 0 Z " fill="#D10818" transform="translate(2273,2130)"/>
<path d="M0 0 C31.35 0 62.7 0 95 0 C95 5.94 95 11.88 95 18 C83.12 18 71.24 18 59 18 C59 48.69 59 79.38 59 111 C51.74 111 44.48 111 37 111 C37 80.31 37 49.62 37 18 C24.79 18 12.58 18 0 18 C0 12.06 0 6.12 0 0 Z " fill="#D10818" transform="translate(0,2130)"/>
<path d="M0 0 C7.26 0 14.52 0 22 0 C22 30.69 22 61.38 22 93 C41.14 93 60.28 93 80 93 C80 98.94 80 104.88 80 111 C53.6 111 27.2 111 0 111 C0 74.37 0 37.74 0 0 Z " fill="#D20818" transform="translate(2520,2130)"/>
<path d="M0 0 C6.93 0 13.86 0 21 0 C21 36.63 21 73.26 21 111 C14.07 111 7.14 111 0 111 C0 74.37 0 37.74 0 0 Z " fill="#D20818" transform="translate(555,2130)"/>
<path d="M0 0 C3.4508588 2.21010058 4.93754841 4.43764523 6.25 8.375 C6.81138108 13.61455679 6.10632372 16.94277353 3.25 21.375 C0.92197967 24.13952414 -0.72243467 25.2212574 -4.30859375 25.7578125 C-8.98796719 25.94828903 -12.06416186 25.71190295 -16.3125 23.625 C-19.3365693 20.83355141 -20.53521352 18.87172265 -21.12109375 14.7890625 C-21.32255559 6.32766514 -21.32255559 6.32766514 -18.5625 2.8125 C-12.99528305 -2.01242136 -6.81488223 -3.45057328 0 0 Z " fill="#D10818" transform="translate(2899.75,2216.625)"/>
<path d="M0 0 C3.94807909 2.08577763 6.65386161 4.21112133 9 8 C9.88450169 13.27513621 9.61026039 17.75768421 7.25 22.5625 C4.45855141 25.5865693 2.49672265 26.78521352 -1.5859375 27.37109375 C-10.04733486 27.57255559 -10.04733486 27.57255559 -13.5625 24.8125 C-17.35669624 20.43458127 -18.20929659 17.73320927 -17.9375 12 C-17.47095476 8.26763804 -17.06687284 7.08675396 -14.6875 4 C-9.85975688 0.40726093 -6.15243059 -0.97206032 0 0 Z " fill="#D10818" transform="translate(2407,2215)"/>
</svg>
